<svg width="18" height="15" viewBox="0 0 18 15" fill="none" xmlns="http://www.w3.org/2000/svg">
<path d="M1 1.72083V6.0553H5.33447" stroke="white" stroke-width="2" stroke-linecap="round" stroke-linejoin="round"/>
<path d="M16.8931 13.2793V8.94482H12.5586" stroke="white" stroke-width="2" stroke-linecap="round" stroke-linejoin="round"/>
<path d="M15.0798 5.33276C14.7134 4.29739 14.0907 3.37171 13.2698 2.64208C12.4489 1.91246 11.4566 1.40267 10.3854 1.1603C9.31416 0.917923 8.19901 0.950858 7.14398 1.25603C6.08894 1.5612 5.1284 2.12866 4.35199 2.90546L1 6.05518M16.8931 8.94482L13.5411 12.0945C12.7647 12.8713 11.8041 13.4388 10.7491 13.744C9.69405 14.0491 8.5789 14.0821 7.5077 13.8397C6.43649 13.5973 5.44414 13.0875 4.62323 12.3579C3.80233 11.6283 3.17964 10.7026 2.81325 9.66724" stroke="white" stroke-width="2" stroke-linecap="round" stroke-linejoin="round"/>
</svg>
