<svg width="18" height="20" viewBox="0 0 22 24" fill="none" xmlns="http://www.w3.org/2000/svg">
<path d="M13.6513 9.82347L13.3943 10.1061L13.5994 10.4283L21.4208 22.7179C21.4208 22.7179 21.4208 22.7179 21.4208 22.7179C21.4243 22.7235 21.4279 22.7294 21.4315 22.7357C21.6238 23.0684 21.3839 23.4846 20.9993 23.4848C20.9992 23.4848 20.9992 23.4848 20.9991 23.4848L15.002 23.4848L15.0002 23.4848C14.8303 23.4855 14.6719 23.3998 14.5794 23.2575C14.5792 23.2571 14.5789 23.2567 14.5787 23.2564L9.52151 15.3104L9.17009 14.7583L8.72977 15.2425L1.37811 23.3274L1.37809 23.3274L1.37403 23.3319C1.25275 23.4686 1.06647 23.5282 0.888318 23.4873C0.513477 23.4011 0.372733 22.9417 0.634651 22.6604L0.634678 22.6604L0.638797 22.6559L8.35652 14.1612L8.61327 13.8786L8.40826 13.5565L0.586826 1.26806L0.586707 1.26787C0.582624 1.26146 0.578799 1.25515 0.575229 1.24896L0.575141 1.24881C0.383136 0.915929 0.623453 0.499814 1.00814 0.5H1.00838H7.0055C7.00555 0.5 7.0056 0.5 7.00565 0.5C7.1765 0.500105 7.33542 0.587488 7.42701 0.731619L7.4272 0.731923L12.4862 8.68064L12.8376 9.2328L13.2779 8.74856L20.6273 0.666199C20.7459 0.540029 20.9216 0.484265 21.0914 0.519049C21.4674 0.596047 21.6193 1.05012 21.3666 1.33771L13.6513 9.82347ZM15.1287 22.2546L15.2761 22.4861H15.5505H19.1789H20.09L19.6006 21.7176L6.87391 1.73019L6.72654 1.49874H6.45215H2.82881H1.91788L2.407 2.26721L15.1287 22.2546Z" fill="white" stroke="white"/>
</svg>
